<mxfile host="app.diagrams.net" modified="2024-03-27T12:47:51.463Z" agent="Mozilla/5.0 (Windows NT 10.0; Win64; x64) AppleWebKit/537.36 (KHTML, like Gecko) Chrome/122.0.0.0 Safari/537.36 Edg/122.0.0.0" etag="CvufbWwSLY_OpRCklUNZ" version="24.0.1" type="device">
  <diagram name="Page-1" id="H11jdB3L-4hjoOy3nXJY">
    <mxGraphModel dx="2854" dy="1138" grid="1" gridSize="10" guides="1" tooltips="1" connect="1" arrows="1" fold="1" page="1" pageScale="1" pageWidth="850" pageHeight="1100" math="0" shadow="0">
      <root>
        <mxCell id="0" />
        <mxCell id="1" parent="0" />
        <mxCell id="4foRhr6gH4CyOZL6E7uo-27" style="edgeStyle=orthogonalEdgeStyle;rounded=0;orthogonalLoop=1;jettySize=auto;html=1;entryX=0.5;entryY=0;entryDx=0;entryDy=0;" edge="1" parent="1" source="4foRhr6gH4CyOZL6E7uo-1" target="4foRhr6gH4CyOZL6E7uo-12">
          <mxGeometry relative="1" as="geometry" />
        </mxCell>
        <mxCell id="4foRhr6gH4CyOZL6E7uo-1" value="Initialize Task&amp;nbsp;&lt;div&gt;and Project Data&lt;/div&gt;" style="shape=parallelogram;perimeter=parallelogramPerimeter;whiteSpace=wrap;html=1;fixedSize=1;fillColor=#d5e8d4;strokeColor=#82b366;fontStyle=1" vertex="1" parent="1">
          <mxGeometry x="240" y="240" width="120" height="80" as="geometry" />
        </mxCell>
        <mxCell id="4foRhr6gH4CyOZL6E7uo-24" style="edgeStyle=orthogonalEdgeStyle;rounded=0;orthogonalLoop=1;jettySize=auto;html=1;entryX=0;entryY=0.5;entryDx=0;entryDy=0;" edge="1" parent="1" source="4foRhr6gH4CyOZL6E7uo-2" target="4foRhr6gH4CyOZL6E7uo-4">
          <mxGeometry relative="1" as="geometry" />
        </mxCell>
        <mxCell id="4foRhr6gH4CyOZL6E7uo-59" value="Yes" style="edgeLabel;html=1;align=center;verticalAlign=middle;resizable=0;points=[];" vertex="1" connectable="0" parent="4foRhr6gH4CyOZL6E7uo-24">
          <mxGeometry x="-0.0167" y="1" relative="1" as="geometry">
            <mxPoint as="offset" />
          </mxGeometry>
        </mxCell>
        <mxCell id="4foRhr6gH4CyOZL6E7uo-49" style="edgeStyle=orthogonalEdgeStyle;rounded=0;orthogonalLoop=1;jettySize=auto;html=1;entryX=0.5;entryY=0;entryDx=0;entryDy=0;" edge="1" parent="1" source="4foRhr6gH4CyOZL6E7uo-2" target="4foRhr6gH4CyOZL6E7uo-31">
          <mxGeometry relative="1" as="geometry" />
        </mxCell>
        <mxCell id="4foRhr6gH4CyOZL6E7uo-60" value="No" style="edgeLabel;html=1;align=center;verticalAlign=middle;resizable=0;points=[];" vertex="1" connectable="0" parent="4foRhr6gH4CyOZL6E7uo-49">
          <mxGeometry x="-0.2417" relative="1" as="geometry">
            <mxPoint as="offset" />
          </mxGeometry>
        </mxCell>
        <mxCell id="4foRhr6gH4CyOZL6E7uo-2" value="All task status Completed?" style="rhombus;whiteSpace=wrap;html=1;fillColor=#fff2cc;strokeColor=#d6b656;fontStyle=1" vertex="1" parent="1">
          <mxGeometry x="240" y="480" width="120" height="80" as="geometry" />
        </mxCell>
        <mxCell id="4foRhr6gH4CyOZL6E7uo-25" style="edgeStyle=orthogonalEdgeStyle;rounded=0;orthogonalLoop=1;jettySize=auto;html=1;entryX=0;entryY=0.5;entryDx=0;entryDy=0;" edge="1" parent="1" source="4foRhr6gH4CyOZL6E7uo-4" target="4foRhr6gH4CyOZL6E7uo-8">
          <mxGeometry relative="1" as="geometry" />
        </mxCell>
        <mxCell id="4foRhr6gH4CyOZL6E7uo-4" value="Finalize task and project report" style="rounded=0;whiteSpace=wrap;html=1;fillColor=#dae8fc;strokeColor=#6c8ebf;fontStyle=1" vertex="1" parent="1">
          <mxGeometry x="400" y="480" width="120" height="80" as="geometry" />
        </mxCell>
        <mxCell id="4foRhr6gH4CyOZL6E7uo-20" style="edgeStyle=orthogonalEdgeStyle;rounded=0;orthogonalLoop=1;jettySize=auto;html=1;entryX=0.5;entryY=0;entryDx=0;entryDy=0;" edge="1" parent="1" source="4foRhr6gH4CyOZL6E7uo-6" target="4foRhr6gH4CyOZL6E7uo-1">
          <mxGeometry relative="1" as="geometry" />
        </mxCell>
        <mxCell id="4foRhr6gH4CyOZL6E7uo-6" value="Start" style="ellipse;whiteSpace=wrap;html=1;aspect=fixed;fillColor=#f8cecc;strokeColor=#b85450;fontStyle=1" vertex="1" parent="1">
          <mxGeometry x="260" y="120" width="80" height="80" as="geometry" />
        </mxCell>
        <mxCell id="4foRhr6gH4CyOZL6E7uo-8" value="End" style="ellipse;whiteSpace=wrap;html=1;aspect=fixed;fillColor=#f8cecc;strokeColor=#b85450;fontStyle=1" vertex="1" parent="1">
          <mxGeometry x="560" y="480" width="80" height="80" as="geometry" />
        </mxCell>
        <mxCell id="4foRhr6gH4CyOZL6E7uo-12" value="Set CurrDate =&amp;nbsp;&lt;div&gt;Min StartDate&lt;/div&gt;" style="rounded=0;whiteSpace=wrap;html=1;fillColor=#dae8fc;strokeColor=#6c8ebf;fontStyle=1" vertex="1" parent="1">
          <mxGeometry x="240" y="360" width="120" height="80" as="geometry" />
        </mxCell>
        <mxCell id="4foRhr6gH4CyOZL6E7uo-30" style="edgeStyle=orthogonalEdgeStyle;rounded=0;orthogonalLoop=1;jettySize=auto;html=1;entryX=0.5;entryY=0;entryDx=0;entryDy=0;exitX=0.5;exitY=1;exitDx=0;exitDy=0;" edge="1" parent="1" source="4foRhr6gH4CyOZL6E7uo-12" target="4foRhr6gH4CyOZL6E7uo-2">
          <mxGeometry relative="1" as="geometry">
            <mxPoint x="299.9999999999998" y="440" as="sourcePoint" />
          </mxGeometry>
        </mxCell>
        <mxCell id="4foRhr6gH4CyOZL6E7uo-34" style="edgeStyle=orthogonalEdgeStyle;rounded=0;orthogonalLoop=1;jettySize=auto;html=1;entryX=0.5;entryY=0;entryDx=0;entryDy=0;" edge="1" parent="1" source="4foRhr6gH4CyOZL6E7uo-31" target="4foRhr6gH4CyOZL6E7uo-33">
          <mxGeometry relative="1" as="geometry" />
        </mxCell>
        <mxCell id="4foRhr6gH4CyOZL6E7uo-31" value="&lt;div&gt;Filter task today,&lt;br&gt;&lt;/div&gt;Determine if delay using Delay function" style="rounded=0;whiteSpace=wrap;html=1;fillColor=#dae8fc;strokeColor=#6c8ebf;fontStyle=1" vertex="1" parent="1">
          <mxGeometry x="240" y="600" width="120" height="80" as="geometry" />
        </mxCell>
        <mxCell id="4foRhr6gH4CyOZL6E7uo-45" style="edgeStyle=orthogonalEdgeStyle;rounded=0;orthogonalLoop=1;jettySize=auto;html=1;entryX=0.5;entryY=0;entryDx=0;entryDy=0;" edge="1" parent="1" source="4foRhr6gH4CyOZL6E7uo-33" target="4foRhr6gH4CyOZL6E7uo-40">
          <mxGeometry relative="1" as="geometry" />
        </mxCell>
        <mxCell id="4foRhr6gH4CyOZL6E7uo-62" value="No" style="edgeLabel;html=1;align=center;verticalAlign=middle;resizable=0;points=[];" vertex="1" connectable="0" parent="4foRhr6gH4CyOZL6E7uo-45">
          <mxGeometry x="-0.15" relative="1" as="geometry">
            <mxPoint as="offset" />
          </mxGeometry>
        </mxCell>
        <mxCell id="4foRhr6gH4CyOZL6E7uo-57" style="edgeStyle=orthogonalEdgeStyle;rounded=0;orthogonalLoop=1;jettySize=auto;html=1;entryX=0.5;entryY=0;entryDx=0;entryDy=0;" edge="1" parent="1" source="4foRhr6gH4CyOZL6E7uo-33" target="4foRhr6gH4CyOZL6E7uo-37">
          <mxGeometry relative="1" as="geometry" />
        </mxCell>
        <mxCell id="4foRhr6gH4CyOZL6E7uo-61" value="Yes" style="edgeLabel;html=1;align=center;verticalAlign=middle;resizable=0;points=[];" vertex="1" connectable="0" parent="4foRhr6gH4CyOZL6E7uo-57">
          <mxGeometry x="-0.6056" y="-2" relative="1" as="geometry">
            <mxPoint as="offset" />
          </mxGeometry>
        </mxCell>
        <mxCell id="4foRhr6gH4CyOZL6E7uo-33" value="Delay for&amp;nbsp;&lt;div&gt;current date?&lt;/div&gt;" style="rhombus;whiteSpace=wrap;html=1;fillColor=#fff2cc;strokeColor=#d6b656;fontStyle=1" vertex="1" parent="1">
          <mxGeometry x="240" y="720" width="120" height="80" as="geometry" />
        </mxCell>
        <mxCell id="4foRhr6gH4CyOZL6E7uo-50" style="edgeStyle=orthogonalEdgeStyle;rounded=0;orthogonalLoop=1;jettySize=auto;html=1;entryX=0.5;entryY=0;entryDx=0;entryDy=0;" edge="1" parent="1" source="4foRhr6gH4CyOZL6E7uo-35" target="4foRhr6gH4CyOZL6E7uo-36">
          <mxGeometry relative="1" as="geometry" />
        </mxCell>
        <mxCell id="4foRhr6gH4CyOZL6E7uo-63" value="Yes" style="edgeLabel;html=1;align=center;verticalAlign=middle;resizable=0;points=[];" vertex="1" connectable="0" parent="4foRhr6gH4CyOZL6E7uo-50">
          <mxGeometry x="-0.05" y="2" relative="1" as="geometry">
            <mxPoint as="offset" />
          </mxGeometry>
        </mxCell>
        <mxCell id="4foRhr6gH4CyOZL6E7uo-65" style="edgeStyle=orthogonalEdgeStyle;rounded=0;orthogonalLoop=1;jettySize=auto;html=1;entryX=0;entryY=0.5;entryDx=0;entryDy=0;" edge="1" parent="1" source="4foRhr6gH4CyOZL6E7uo-35" target="4foRhr6gH4CyOZL6E7uo-64">
          <mxGeometry relative="1" as="geometry">
            <Array as="points">
              <mxPoint x="370" y="1000" />
              <mxPoint x="370" y="1000" />
            </Array>
          </mxGeometry>
        </mxCell>
        <mxCell id="4foRhr6gH4CyOZL6E7uo-68" value="No" style="edgeLabel;html=1;align=center;verticalAlign=middle;resizable=0;points=[];" vertex="1" connectable="0" parent="4foRhr6gH4CyOZL6E7uo-65">
          <mxGeometry x="-0.4095" y="2" relative="1" as="geometry">
            <mxPoint as="offset" />
          </mxGeometry>
        </mxCell>
        <mxCell id="4foRhr6gH4CyOZL6E7uo-35" value="Progress &amp;gt;= Duration?" style="rhombus;whiteSpace=wrap;html=1;fillColor=#fff2cc;strokeColor=#d6b656;fontStyle=1" vertex="1" parent="1">
          <mxGeometry x="240" y="960" width="120" height="80" as="geometry" />
        </mxCell>
        <mxCell id="4foRhr6gH4CyOZL6E7uo-51" style="edgeStyle=orthogonalEdgeStyle;rounded=0;orthogonalLoop=1;jettySize=auto;html=1;" edge="1" parent="1" source="4foRhr6gH4CyOZL6E7uo-36">
          <mxGeometry relative="1" as="geometry">
            <mxPoint x="299.9999999999998" y="1200" as="targetPoint" />
          </mxGeometry>
        </mxCell>
        <mxCell id="4foRhr6gH4CyOZL6E7uo-36" value="Status = Completed&lt;div&gt;ActualEndDate = CurrDate&lt;/div&gt;" style="rounded=0;whiteSpace=wrap;html=1;fillColor=#dae8fc;strokeColor=#6c8ebf;fontStyle=1" vertex="1" parent="1">
          <mxGeometry x="240" y="1080" width="120" height="80" as="geometry" />
        </mxCell>
        <mxCell id="4foRhr6gH4CyOZL6E7uo-58" style="edgeStyle=orthogonalEdgeStyle;rounded=0;orthogonalLoop=1;jettySize=auto;html=1;entryX=0;entryY=0.5;entryDx=0;entryDy=0;exitX=0.5;exitY=1;exitDx=0;exitDy=0;" edge="1" parent="1" source="4foRhr6gH4CyOZL6E7uo-37" target="4foRhr6gH4CyOZL6E7uo-35">
          <mxGeometry relative="1" as="geometry">
            <Array as="points">
              <mxPoint x="140" y="1000" />
            </Array>
          </mxGeometry>
        </mxCell>
        <mxCell id="4foRhr6gH4CyOZL6E7uo-37" value="Progress + 0" style="rounded=0;whiteSpace=wrap;html=1;fillColor=#dae8fc;strokeColor=#6c8ebf;fontStyle=1" vertex="1" parent="1">
          <mxGeometry x="80" y="840" width="120" height="80" as="geometry" />
        </mxCell>
        <mxCell id="4foRhr6gH4CyOZL6E7uo-46" style="edgeStyle=orthogonalEdgeStyle;rounded=0;orthogonalLoop=1;jettySize=auto;html=1;entryX=0.5;entryY=0;entryDx=0;entryDy=0;exitX=0.5;exitY=1;exitDx=0;exitDy=0;" edge="1" parent="1" source="4foRhr6gH4CyOZL6E7uo-40" target="4foRhr6gH4CyOZL6E7uo-35">
          <mxGeometry relative="1" as="geometry">
            <Array as="points">
              <mxPoint x="300" y="940" />
              <mxPoint x="300" y="940" />
            </Array>
          </mxGeometry>
        </mxCell>
        <mxCell id="4foRhr6gH4CyOZL6E7uo-40" value="Progress + 1" style="rounded=0;whiteSpace=wrap;html=1;fillColor=#dae8fc;strokeColor=#6c8ebf;fontStyle=1" vertex="1" parent="1">
          <mxGeometry x="240" y="840" width="120" height="80" as="geometry" />
        </mxCell>
        <mxCell id="4foRhr6gH4CyOZL6E7uo-56" style="edgeStyle=orthogonalEdgeStyle;rounded=0;orthogonalLoop=1;jettySize=auto;html=1;entryX=0;entryY=0.5;entryDx=0;entryDy=0;" edge="1" parent="1" source="4foRhr6gH4CyOZL6E7uo-52" target="4foRhr6gH4CyOZL6E7uo-2">
          <mxGeometry relative="1" as="geometry">
            <Array as="points">
              <mxPoint y="1240" />
              <mxPoint y="520" />
            </Array>
          </mxGeometry>
        </mxCell>
        <mxCell id="4foRhr6gH4CyOZL6E7uo-52" value="CurrDate + 1 Days" style="rounded=0;whiteSpace=wrap;html=1;fillColor=#dae8fc;strokeColor=#6c8ebf;fontStyle=1" vertex="1" parent="1">
          <mxGeometry x="240" y="1200" width="120" height="80" as="geometry" />
        </mxCell>
        <mxCell id="4foRhr6gH4CyOZL6E7uo-55" style="edgeStyle=orthogonalEdgeStyle;rounded=0;orthogonalLoop=1;jettySize=auto;html=1;entryX=1;entryY=0.5;entryDx=0;entryDy=0;" edge="1" parent="1" source="4foRhr6gH4CyOZL6E7uo-53" target="4foRhr6gH4CyOZL6E7uo-52">
          <mxGeometry relative="1" as="geometry">
            <Array as="points">
              <mxPoint x="460" y="1240" />
            </Array>
          </mxGeometry>
        </mxCell>
        <mxCell id="4foRhr6gH4CyOZL6E7uo-53" value="Status&amp;nbsp; = Delayed" style="rounded=0;whiteSpace=wrap;html=1;fillColor=#dae8fc;strokeColor=#6c8ebf;fontStyle=1" vertex="1" parent="1">
          <mxGeometry x="400" y="1080" width="120" height="80" as="geometry" />
        </mxCell>
        <mxCell id="4foRhr6gH4CyOZL6E7uo-66" style="edgeStyle=orthogonalEdgeStyle;rounded=0;orthogonalLoop=1;jettySize=auto;html=1;entryX=0.5;entryY=0;entryDx=0;entryDy=0;" edge="1" parent="1" source="4foRhr6gH4CyOZL6E7uo-64" target="4foRhr6gH4CyOZL6E7uo-53">
          <mxGeometry relative="1" as="geometry" />
        </mxCell>
        <mxCell id="4foRhr6gH4CyOZL6E7uo-69" value="Yes" style="edgeLabel;html=1;align=center;verticalAlign=middle;resizable=0;points=[];" vertex="1" connectable="0" parent="4foRhr6gH4CyOZL6E7uo-66">
          <mxGeometry x="-0.2238" y="-2" relative="1" as="geometry">
            <mxPoint as="offset" />
          </mxGeometry>
        </mxCell>
        <mxCell id="4foRhr6gH4CyOZL6E7uo-67" style="edgeStyle=orthogonalEdgeStyle;rounded=0;orthogonalLoop=1;jettySize=auto;html=1;entryX=1;entryY=0.5;entryDx=0;entryDy=0;" edge="1" parent="1" source="4foRhr6gH4CyOZL6E7uo-64" target="4foRhr6gH4CyOZL6E7uo-52">
          <mxGeometry relative="1" as="geometry">
            <Array as="points">
              <mxPoint x="560" y="1000" />
              <mxPoint x="560" y="1240" />
            </Array>
          </mxGeometry>
        </mxCell>
        <mxCell id="4foRhr6gH4CyOZL6E7uo-70" value="No" style="edgeLabel;html=1;align=center;verticalAlign=middle;resizable=0;points=[];" vertex="1" connectable="0" parent="4foRhr6gH4CyOZL6E7uo-67">
          <mxGeometry x="-0.8952" y="2" relative="1" as="geometry">
            <mxPoint as="offset" />
          </mxGeometry>
        </mxCell>
        <mxCell id="4foRhr6gH4CyOZL6E7uo-64" value="CurrDate &amp;gt;&amp;nbsp;&lt;div&gt;EndDate&lt;/div&gt;" style="rhombus;whiteSpace=wrap;html=1;fillColor=#fff2cc;strokeColor=#d6b656;fontStyle=1" vertex="1" parent="1">
          <mxGeometry x="400" y="960" width="120" height="80" as="geometry" />
        </mxCell>
      </root>
    </mxGraphModel>
  </diagram>
</mxfile>
